<svg id="instagram-ic" xmlns="http://www.w3.org/2000/svg" width="30.086" height="30.086" viewBox="0 0 30.086 30.086">
  <path id="Path_89" data-name="Path 89" d="M212.959,209.979A2.979,2.979,0,1,1,209.98,207a2.979,2.979,0,0,1,2.979,2.979Zm0,0" transform="translate(-194.936 -194.936)" fill="#fff"/>
  <path id="Path_90" data-name="Path 90" d="M149.779,137.544a2.96,2.96,0,0,0-1.7-1.7,4.945,4.945,0,0,0-1.659-.308c-.943-.043-1.225-.052-3.612-.052s-2.669.009-3.612.052a4.948,4.948,0,0,0-1.659.308,2.961,2.961,0,0,0-1.7,1.7,4.947,4.947,0,0,0-.308,1.66c-.043.942-.052,1.225-.052,3.612s.009,2.669.052,3.612a4.945,4.945,0,0,0,.308,1.659,2.96,2.96,0,0,0,1.7,1.7,4.94,4.94,0,0,0,1.66.308c.942.043,1.225.052,3.611.052s2.67-.009,3.612-.052a4.94,4.94,0,0,0,1.66-.308,2.96,2.96,0,0,0,1.7-1.7,4.95,4.95,0,0,0,.308-1.659c.043-.943.052-1.225.052-3.612s-.009-2.669-.052-3.612a4.94,4.94,0,0,0-.309-1.66Zm-6.967,9.861a4.59,4.59,0,1,1,4.59-4.59,4.59,4.59,0,0,1-4.59,4.59Zm4.771-8.288a1.073,1.073,0,1,1,1.073-1.073,1.073,1.073,0,0,1-1.073,1.073Zm0,0" transform="translate(-127.769 -127.772)" fill="#fff"/>
  <path id="Path_91" data-name="Path 91" d="M15.043,0A15.043,15.043,0,1,0,30.086,15.043,15.043,15.043,0,0,0,15.043,0Zm8.586,18.6a6.338,6.338,0,0,1-.4,2.1A4.417,4.417,0,0,1,20.7,23.228a6.342,6.342,0,0,1-2.1.4c-.921.042-1.215.052-3.561.052s-2.64-.01-3.562-.052a6.342,6.342,0,0,1-2.1-.4A4.417,4.417,0,0,1,6.859,20.7a6.336,6.336,0,0,1-.4-2.1c-.042-.921-.052-1.216-.052-3.562s.01-2.64.052-3.561a6.338,6.338,0,0,1,.4-2.1A4.42,4.42,0,0,1,9.385,6.859a6.343,6.343,0,0,1,2.1-.4c.921-.042,1.215-.052,3.561-.052s2.64.01,3.561.052a6.345,6.345,0,0,1,2.1.4,4.418,4.418,0,0,1,2.526,2.527,6.337,6.337,0,0,1,.4,2.1c.042.921.052,1.215.052,3.561s-.014,2.636-.056,3.553Zm0,0" fill="#fff"/>
</svg>
