<svg xmlns="http://www.w3.org/2000/svg" xmlns:xlink="http://www.w3.org/1999/xlink" width="159.766" height="159.448" viewBox="0 0 159.766 159.448">
  <defs>
    <clipPath id="clip-path">
      <rect id="Rectangle_111" data-name="Rectangle 111" width="159.766" height="159.448" fill="none"/>
    </clipPath>
  </defs>
  <g id="Group_217" data-name="Group 217" transform="translate(0 0)">
    <g id="Group_129" data-name="Group 129" transform="translate(0 0)" clip-path="url(#clip-path)">
      <path id="Path_34" data-name="Path 34" d="M75.2,0h9.361a8.76,8.76,0,0,0,1.2.256A76.139,76.139,0,0,1,120.62,11.226c20.694,12.66,33.432,30.909,37.9,54.784.56,2.988.837,6.029,1.245,9.045V84.4c-.128,1.12-.258,2.24-.383,3.362-1.887,16.877-8.241,31.848-19.572,44.545-15.048,16.863-33.981,25.947-56.578,27.043a76.087,76.087,0,0,1-44.057-11.112C18.445,135.613,5.72,117.332,1.245,93.447.685,90.457.407,87.415,0,84.4V75.055q.192-1.68.383-3.36A78.683,78.683,0,0,1,20.447,26.572,78.375,78.375,0,0,1,66.124,1.24c3-.532,6.05-.832,9.079-1.24M79.9,152.826c40.328-.025,73.255-32.9,73.229-73.113A73.35,73.35,0,0,0,79.871,6.628C39.543,6.652,6.615,39.525,6.64,79.739A73.352,73.352,0,0,0,79.9,152.826" transform="translate(0 0.001)" fill="#9a9a9a"/>
      <path id="Path_35" data-name="Path 35" d="M34.13,59.666q0-14.479-.011-28.956c-.005-1.54.235-2.916,1.689-3.752,1.52-.874,2.864-.342,4.212.523q22.538,14.487,45.1,28.948C88.2,58.41,88.18,61,85.068,63Q62.588,77.431,40.1,91.854c-1.333.857-2.665,1.466-4.21.627s-1.777-2.263-1.773-3.859c.026-9.653.012-19.3.012-28.956m6.722,23.8L77.9,59.694,40.853,35.922Z" transform="translate(25.782 20.033)" fill="#9a9a9a"/>
    </g>
  </g>
</svg>
