<svg xmlns="http://www.w3.org/2000/svg" xmlns:xlink="http://www.w3.org/1999/xlink" width="79.972" height="79.813" viewBox="0 0 79.972 79.813">
  <defs>
    <clipPath id="clip-path">
      <rect id="Rectangle_111" data-name="Rectangle 111" width="79.972" height="79.813" fill="none"/>
    </clipPath>
  </defs>
  <g id="Group_132" data-name="Group 132" transform="translate(0 0)">
    <g id="Group_129" data-name="Group 129" transform="translate(0 0)" clip-path="url(#clip-path)">
      <path id="Path_34" data-name="Path 34" d="M37.643,0h4.686a4.385,4.385,0,0,0,.6.128A38.112,38.112,0,0,1,60.377,5.619,39.394,39.394,0,0,1,79.349,33.042c.28,1.5.419,3.018.623,4.528v4.677c-.064.561-.129,1.121-.192,1.683a39.216,39.216,0,0,1-9.8,22.3A39.173,39.173,0,0,1,41.663,79.763,38.086,38.086,0,0,1,19.61,74.2,39.324,39.324,0,0,1,.623,46.776C.343,45.279.2,43.756,0,42.246V37.569q.1-.841.192-1.682A39.386,39.386,0,0,1,10.235,13.3,39.231,39.231,0,0,1,33.1.62C34.6.354,36.127.2,37.643,0m2.349,76.5A36.59,36.59,0,1,0,3.324,39.914,36.716,36.716,0,0,0,39.992,76.5" transform="translate(0 0)" fill="#9a9a9a"/>
      <path id="Path_35" data-name="Path 35" d="M34.124,43.106q0-7.248-.005-14.494A1.762,1.762,0,0,1,37.073,27q11.281,7.252,22.573,14.49c1.545.992,1.534,2.288-.025,3.288Q48.369,52,37.113,59.219a1.773,1.773,0,0,1-3-1.618c.013-4.832.006-9.663.006-14.494m3.365,11.915,18.545-11.9-18.545-11.9Z" transform="translate(-4.135 -3.212)" fill="#9a9a9a"/>
    </g>
  </g>
</svg>
